<svg id="Loggo" xmlns="http://www.w3.org/2000/svg" width="250" height="155" viewBox="0 0 250 155">
  <metadata><?xpacket begin="﻿" id="W5M0MpCehiHzreSzNTczkc9d"?>
<x:xmpmeta xmlns:x="adobe:ns:meta/" x:xmptk="Adobe XMP Core 5.6-c138 79.159824, 2016/09/14-01:09:01        ">
   <rdf:RDF xmlns:rdf="http://www.w3.org/1999/02/22-rdf-syntax-ns#">
      <rdf:Description rdf:about=""/>
   </rdf:RDF>
</x:xmpmeta>
                                                                                                    
                                                                                                    
                                                                                                    
                                                                                                    
                                                                                                    
                                                                                                    
                                                                                                    
                                                                                                    
                                                                                                    
                                                                                                    
                                                                                                    
                                                                                                    
                                                                                                    
                                                                                                    
                                                                                                    
                                                                                                    
                                                                                                    
                                                                                                    
                                                                                                    
                                                                                                    
                           
<?xpacket end="w"?></metadata>
<defs>
    <style>
      .cls-1, .cls-2 {
        fill: #18121e;
      }

      .cls-1, .cls-3 {
        fill-rule: evenodd;
      }

      .cls-3 {
        fill: #eac67a;
      }
    </style>
  </defs>
  <path id="Rectangle_1_copy" data-name="Rectangle 1 copy" class="cls-1" d="M259,400.826H509V450H259V400.826Z" transform="translate(-259 -295)"/>
  <rect class="cls-2" y="53.406" width="122.688" height="49.188"/>
  <path id="U" class="cls-3" d="M348.744,380.638q-0.05-3.15-.049-4.712,0-5.664.464-16.992t0.464-16.943a1.156,1.156,0,0,0-1.416-1.172q-2.881,0-8.691.244t-8.692.244q-1.221,0-1.221,1.514,0,7.08.342,21.24t0.342,21.24q0,9.717-10.01,9.717-6.837,0-8.984-3.662-1.611-2.685-1.611-10.352,0-6.446.415-19.311t0.415-19.312a1.02,1.02,0,0,0-1.221-1.074q-2.979,0-9.009-.244t-9.009-.244a0.976,0.976,0,0,0-1.025,1.172q0,5.615.537,16.943t0.537,16.992q0,1.953-.146,5.908t-0.147,5.957q0,8.643,1.27,12.012,2.538,6.885,11.035,9.326,5.322,1.513,15.185,1.514,21.827,0,27.3-8.3,2.979-4.54,2.979-16.992Q348.793,383.787,348.744,380.638Z" transform="translate(-259 -295)"/>
  <rect id="Rectangle_2_copy" data-name="Rectangle 2 copy" class="cls-2" x="127.313" y="53.406" width="122.687" height="49.188"/>
  <path id="B" class="cls-3" d="M476.449,378.09a13.2,13.2,0,0,0-5.371-6.2,2.375,2.375,0,0,1-1.27-1.074,11.727,11.727,0,0,0,1.807-1.856,25.308,25.308,0,0,0,3.32-4.59,12.794,12.794,0,0,0,1.758-6.1q0-11.034-7.568-15.674-5.714-3.466-17.725-3.906-2.635-.1-18.213-0.1-9.717,0-11.3.2t-1.538,1.123l0.048,0.683q0.391,8.008.538,12.012,0.585,15.626.585,21.289,0,5.274-.61,15.869t-0.61,15.82a1.491,1.491,0,0,0,1.416,1.514q3.417,0.732,21.435.733h3.467q2.295,0.048,3.516.048,16.063,0,22.461-6.787a20.756,20.756,0,0,0,5.615-14.892,19.113,19.113,0,0,0-1.758-8.106h0Zm-29.736-13.379q-5.666,0-6.2-.439-0.831-.587-0.83-5.469,0-.927.171-2.807t0.17-2.808q0-.78,5.274-0.781a28.668,28.668,0,0,1,7.715.732q4.2,1.368,4.2,5.566,0,6.006-10.5,6.006h0Zm8.4,26.953q-2.149.831-7.422,0.831-6.4,0-7.031-.611t-0.635-6.372q0-5.517.537-5.981t6.836-.464q5.274,0,7.618.976,3.661,1.563,3.662,5.957,0,4.248-3.565,5.664h0Z" transform="translate(-259 -295)"/>
  <path class="cls-1" d="M259,295H509v49.174H259V295Z" transform="translate(-259 -295)"/>
</svg>
